# xmcd
# Copyright (C) 1995-1998 Ti Kan
#
# Track frame offsets:
#       150
#       15813
#       26986
#       41585
#       55667
#       80871
#       95038
#       106403
#       120121
#       137417
#       156986
#       181377
#       205896
#       221556
#       240137
#       254962
#       276068
#
# Disc length: 3881 seconds
#
# Revision: 2
# Processed by: cddbd v1.4PL0 Copyright (c) Steve Scherf et al.
# Submitted via: CD-Transfer v1.0
#
DISCID=e70f2711
DTITLE=Stereohr - Normal?!
DYEAR=2004
DGENRE=
TTITLE0=Romantica
TTITLE1=News Today
TTITLE2=Mängisch
TTITLE3=Slow Down
TTITLE4=Julia
TTITLE5=New Summertime
TTITLE6=Bliib Wi'd Bisch
TTITLE7=2003
TTITLE8=You!
TTITLE9=Normal
TTITLE10=Get Up!
TTITLE11=Geschter Nacht
TTITLE12=She Only Know's
TTITLE13=Schwiizerfoti 03
TTITLE14=Say Goodbye
TTITLE15=Blind
TTITLE16=Funkey Donkey
EXTD=
EXTT0=
EXTT1=
EXTT2=
EXTT3=
EXTT4=
EXTT5=
EXTT6=
EXTT7=
EXTT8=
EXTT9=
EXTT10=
EXTT11=
EXTT12=
EXTT13=
EXTT14=
EXTT15=
EXTT16=
PLAYORDER=
